REM DIRINDEX 1\2\6,1\2\7,1\2\8,1\2\9,1\3\10,1\3\11,1\4\12,1\4\13,1\4\14,1\5\15,1\5\16,1\5\17
REM DIRNAME folder01,folder02,folder03,folder04,folder05,folder06,folder07,folder08,folder09,folder10,folder11,folder12,folder13,folder14,folder15,folder16,folder17
TITLE ""
FILE "1900_2_sec07_0666_0681.mp3" MP3
  TRACK 01 AUDIO
    TITLE "0:"
    INDEX 01 00:00:00
  TRACK 02 AUDIO
    TITLE "13:cjc020_3444"
    INDEX 01 00:00:17
  TRACK 03 AUDIO
    TITLE "0:"
    INDEX 01 00:01:32
  TRACK 04 AUDIO
    TITLE "14:cjc020_3445"
    INDEX 01 00:01:34
  TRACK 05 AUDIO
    TITLE "0:"
    INDEX 01 00:03:37
  TRACK 06 AUDIO
    TITLE "13:cjc020_3446"
    INDEX 01 00:04:15
  TRACK 07 AUDIO
    TITLE "0:"
    INDEX 01 00:05:18
  TRACK 08 AUDIO
    TITLE "14:cjc020_3447"
    INDEX 01 00:05:20
  TRACK 09 AUDIO
    TITLE "0:"
    INDEX 01 00:08:44
  TRACK 10 AUDIO
    TITLE "13:cjc020_3448"
    INDEX 01 00:09:24
  TRACK 11 AUDIO
    TITLE "0:"
    INDEX 01 00:10:39
  TRACK 12 AUDIO
    TITLE "14:cjc020_3449"
    INDEX 01 00:10:41
  TRACK 13 AUDIO
    TITLE "0:"
    INDEX 01 00:12:69
  TRACK 14 AUDIO
    TITLE "13:cjc020_3450"
    INDEX 01 00:13:49
  TRACK 15 AUDIO
    TITLE "0:"
    INDEX 01 00:14:64
  TRACK 16 AUDIO
    TITLE "14:cjc020_3451"
    INDEX 01 00:14:68
  TRACK 17 AUDIO
    TITLE "0:"
    INDEX 01 00:18:11
  TRACK 18 AUDIO
    TITLE "13:cjc020_3452"
    INDEX 01 00:18:64
  TRACK 19 AUDIO
    TITLE "0:"
    INDEX 01 00:19:63
  TRACK 20 AUDIO
    TITLE "14:cjc020_3453"
    INDEX 01 00:19:65
  TRACK 21 AUDIO
    TITLE "0:"
    INDEX 01 00:22:34
  TRACK 22 AUDIO
    TITLE "13:cjc020_3454"
    INDEX 01 00:23:14
  TRACK 23 AUDIO
    TITLE "0:"
    INDEX 01 00:24:16
  TRACK 24 AUDIO
    TITLE "14:cjc020_3455"
    INDEX 01 00:24:22
  TRACK 25 AUDIO
    TITLE "0:"
    INDEX 01 00:26:44
  TRACK 26 AUDIO
    TITLE "13:cjc020_3456"
    INDEX 01 00:27:24
  TRACK 27 AUDIO
    TITLE "0:"
    INDEX 01 00:28:35
  TRACK 28 AUDIO
    TITLE "14:cjc020_3457"
    INDEX 01 00:28:37
  TRACK 29 AUDIO
    TITLE "0:"
    INDEX 01 00:31:12
  TRACK 30 AUDIO
    TITLE "13:cjc020_3458"
    INDEX 01 00:31:65
  TRACK 31 AUDIO
    TITLE "0:"
    INDEX 01 00:32:60
  TRACK 32 AUDIO
    TITLE "14:cjc020_3459"
    INDEX 01 00:32:62
  TRACK 33 AUDIO
    TITLE "0:"
    INDEX 01 00:34:57
  TRACK 34 AUDIO
    TITLE "13:cjc020_3460"
    INDEX 01 00:35:41
  TRACK 35 AUDIO
    TITLE "0:"
    INDEX 01 00:36:33
  TRACK 36 AUDIO
    TITLE "14:cjc020_3461"
    INDEX 01 00:36:38
  TRACK 37 AUDIO
    TITLE "0:"
    INDEX 01 00:39:74
  TRACK 38 AUDIO
    TITLE "13:cjc020_3462"
    INDEX 01 00:40:52
  TRACK 39 AUDIO
    TITLE "0:"
    INDEX 01 00:41:69
  TRACK 40 AUDIO
    TITLE "14:cjc020_3463"
    INDEX 01 00:42:00
  TRACK 41 AUDIO
    TITLE "0:"
    INDEX 01 00:47:05
  TRACK 42 AUDIO
    TITLE "13:cjc020_3464"
    INDEX 01 00:47:60
  TRACK 43 AUDIO
    TITLE "0:"
    INDEX 01 00:49:00
  TRACK 44 AUDIO
    TITLE "14:cjc020_3465"
    INDEX 01 00:49:02
  TRACK 45 AUDIO
    TITLE "0:"
    INDEX 01 00:50:11
  TRACK 46 AUDIO
    TITLE "13:cjc020_3466"
    INDEX 01 00:50:64
  TRACK 47 AUDIO
    TITLE "0:"
    INDEX 01 00:51:60
  TRACK 48 AUDIO
    TITLE "14:cjc020_3467"
    INDEX 01 00:51:65
  TRACK 49 AUDIO
    TITLE "0:"
    INDEX 01 00:55:30
  TRACK 50 AUDIO
    TITLE "13:cjc020_3468"
    INDEX 01 00:56:06
  TRACK 51 AUDIO
    TITLE "0:"
    INDEX 01 00:57:37
  TRACK 52 AUDIO
    TITLE "14:cjc020_3469"
    INDEX 01 00:57:39
  TRACK 53 AUDIO
    TITLE "0:"
    INDEX 01 01:00:68
  TRACK 54 AUDIO
    TITLE "12:cjc020_3470"
    INDEX 01 01:02:42
  TRACK 55 AUDIO
    TITLE "0:"
    INDEX 01 01:04:11
  TRACK 56 AUDIO
    TITLE "13:cjc020_3471"
    INDEX 01 01:05:11
  TRACK 57 AUDIO
    TITLE "0:"
    INDEX 01 01:06:36
  TRACK 58 AUDIO
    TITLE "14:cjc020_3472"
    INDEX 01 01:06:38
  TRACK 59 AUDIO
    TITLE "0:"
    INDEX 01 01:09:16
  TRACK 60 AUDIO
    TITLE "13:cjc020_3473"
    INDEX 01 01:09:71
  TRACK 61 AUDIO
    TITLE "0:"
    INDEX 01 01:11:05
  TRACK 62 AUDIO
    TITLE "14:cjc020_3474"
    INDEX 01 01:11:07
  TRACK 63 AUDIO
    TITLE "0:"
    INDEX 01 01:13:02
  TRACK 64 AUDIO
    TITLE "13:cjc020_3475"
    INDEX 01 01:13:53
  TRACK 65 AUDIO
    TITLE "0:"
    INDEX 01 01:14:53
  TRACK 66 AUDIO
    TITLE "14:cjc020_3476"
    INDEX 01 01:14:57
  TRACK 67 AUDIO
    TITLE "0:"
    INDEX 01 01:17:24
